<?xml version="1.0" standalone="no"?>
<!DOCTYPE svg PUBLIC "-//W3C//DTD SVG 20010904//EN"
 "http://www.w3.org/TR/2001/REC-SVG-20010904/DTD/svg10.dtd">
<svg version="1.0" xmlns="http://www.w3.org/2000/svg"
 width="432.000000pt" height="252.000000pt" viewBox="0 0 432.000000 252.000000"
 preserveAspectRatio="xMidYMid meet">

<g transform="translate(0.000000,252.000000) scale(0.100000,-0.100000)"
fill="#000000" stroke="none">
<path d="M1215 2262 c-70 -24 -107 -53 -149 -116 l-36 -54 -75 -4 c-108 -5
-120 -19 -120 -138 0 -115 12 -131 112 -139 l68 -6 5 -130 c7 -149 22 -197 85
-260 77 -76 96 -80 390 -80 291 0 298 1 375 71 23 21 50 55 61 75 10 21 43
142 73 270 31 135 59 235 67 240 8 5 51 9 96 9 68 0 84 -3 91 -17 5 -10 28
-99 52 -198 67 -284 75 -306 119 -357 24 -27 61 -55 93 -69 51 -22 63 -23 308
-23 l255 -1 52 27 c64 34 109 79 136 138 16 35 22 73 26 175 l6 130 68 6 c100
8 112 24 112 139 0 118 -12 132 -122 139 l-77 6 -36 52 c-19 29 -51 64 -70 78
-70 51 -113 56 -427 53 -275 -3 -290 -4 -329 -25 -23 -12 -55 -34 -72 -48 -31
-26 -34 -26 -190 -27 l-159 0 -47 36 c-80 60 -115 66 -420 66 -231 -1 -278 -3
-321 -18z m399 -134 c25 -23 29 -35 27 -72 -1 -25 -316 -342 -351 -355 -19 -6
-35 -5 -51 3 -29 14 -52 59 -45 84 11 32 351 362 374 362 11 0 32 -10 46 -22z
m1319 11 c25 -11 47 -47 47 -76 0 -20 -313 -338 -352 -359 -53 -28 -110 26
-95 89 8 28 338 357 360 357 9 0 27 -5 40 -11z"/>
<path d="M174 1086 c-28 -28 -34 -42 -34 -76 0 -34 6 -48 34 -76 l34 -34 260
0 c144 0 272 -4 286 -10 15 -5 28 -20 32 -36 6 -22 2 -32 -20 -51 -27 -23 -27
-23 -327 -23 l-299 0 0 -25 0 -25 310 0 c341 0 355 2 385 60 19 36 19 63 1 99
-29 56 -27 56 -328 61 -262 5 -281 6 -294 24 -21 29 -17 63 8 80 19 14 67 16
325 16 l303 0 0 25 0 25 -321 0 -321 0 -34 -34z"/>
<path d="M910 925 l0 -195 30 0 30 0 0 85 0 85 293 -2 292 -3 3 -82 3 -83 29
0 30 0 0 195 0 195 -30 0 -30 0 0 -85 0 -85 -295 0 -295 0 0 85 0 85 -30 0
-30 0 0 -195z"/>
<path d="M1855 933 c-93 -103 -171 -190 -173 -195 -2 -4 117 -8 264 -8 l267 0
-23 25 c-23 25 -25 25 -202 25 -98 0 -178 3 -178 6 0 7 210 238 219 241 3 2
67 -65 141 -147 133 -147 136 -149 178 -149 l43 -1 -178 195 c-98 107 -180
195 -183 195 -3 -1 -81 -85 -175 -187z"/>
<path d="M2149 1096 c23 -25 23 -25 270 -28 214 -3 250 -5 279 -21 100 -55 94
-200 -11 -247 -33 -15 -65 -20 -146 -20 l-104 0 23 -25 c22 -23 30 -25 117
-25 133 0 191 28 234 112 36 71 17 169 -43 225 -52 49 -78 53 -369 53 l-272 0
22 -24z"/>
<path d="M2890 1095 l0 -25 195 0 195 0 -16 25 -16 25 -179 0 -179 0 0 -25z"/>
<path d="M3512 1092 c-35 -33 -47 -69 -38 -109 4 -14 21 -39 38 -55 l30 -28
267 0 c225 0 270 -2 289 -16 25 -17 29 -51 8 -80 -13 -18 -30 -19 -235 -22
l-221 -3 16 -25 16 -24 215 0 215 0 34 34 c28 28 34 42 34 76 0 34 -6 48 -34
76 l-34 34 -261 0 c-279 0 -307 4 -318 48 -5 20 0 31 21 49 27 23 27 23 327
23 l299 0 0 25 0 25 -319 0 -319 0 -30 -28z"/>
<path d="M2890 925 l0 -25 277 0 276 0 -23 25 -23 25 -254 0 -253 0 0 -25z"/>
<path d="M2890 755 l0 -25 350 0 c193 0 350 2 350 5 0 3 -8 14 -17 25 -17 19
-29 20 -350 20 l-333 0 0 -25z"/>
<path d="M1382 479 c3 -8 17 -51 32 -96 34 -102 55 -111 75 -30 22 86 27 87
48 17 13 -43 25 -66 36 -68 19 -4 25 8 55 116 17 60 18 72 6 72 -16 0 -16 1
-40 -85 l-17 -60 -24 73 c-15 43 -30 72 -39 72 -8 0 -22 -28 -36 -72 l-22 -73
-22 70 c-15 47 -27 71 -39 74 -12 2 -16 -2 -13 -10z"/>
<path d="M1700 475 c0 -8 7 -15 15 -15 8 0 15 7 15 15 0 8 -7 15 -15 15 -8 0
-15 -7 -15 -15z"/>
<path d="M1910 395 c0 -57 4 -95 10 -95 6 0 10 15 10 33 0 32 23 77 40 77 21
0 40 -34 40 -71 0 -21 5 -39 10 -39 6 0 10 24 10 54 0 62 -14 79 -62 74 -31
-3 -33 -1 -36 30 -2 17 -7 32 -13 32 -5 0 -9 -43 -9 -95z"/>
<path d="M2195 474 c-29 -30 -15 -67 35 -91 29 -14 45 -28 45 -40 0 -15 -7
-18 -43 -16 -51 2 -53 -17 -4 -31 40 -11 82 13 82 49 0 27 -42 65 -72 65 -25
0 -35 28 -16 46 11 11 21 12 41 5 18 -7 28 -7 33 1 17 28 -74 39 -101 12z"/>
<path d="M2680 395 c0 -57 4 -95 10 -95 6 0 10 38 10 95 0 57 -4 95 -10 95 -6
0 -10 -38 -10 -95z"/>
<path d="M1792 383 c3 -77 3 -78 31 -81 31 -4 37 14 7 23 -25 8 -27 50 -2 65
16 10 16 10 0 20 -10 6 -18 20 -18 30 0 11 -5 20 -10 20 -7 0 -10 -29 -8 -77z"/>
<path d="M2372 383 l3 -78 35 -3 35 -2 -27 21 c-32 24 -36 53 -10 69 16 10 16
10 0 20 -10 6 -18 20 -18 30 0 11 -5 20 -10 20 -7 0 -10 -29 -8 -77z"/>
<path d="M1700 365 c0 -51 3 -65 15 -65 12 0 15 14 15 65 0 51 -3 65 -15 65
-12 0 -15 -14 -15 -65z"/>
<path d="M2470 426 c0 -2 14 -33 31 -70 30 -65 31 -86 3 -86 -8 0 -14 -7 -14
-15 0 -18 20 -19 43 -2 14 10 87 154 87 171 0 3 -6 6 -13 6 -8 0 -24 -23 -38
-51 l-24 -52 -23 52 c-13 28 -30 51 -38 51 -8 0 -14 -2 -14 -4z"/>
<path d="M2780 410 c-27 -27 -25 -66 5 -95 28 -28 53 -31 81 -10 18 13 17 14
-17 15 -20 0 -42 7 -49 15 -11 13 -5 15 44 15 52 0 56 2 56 23 0 53 -80 77
-120 37z m76 -15 c18 -13 16 -14 -26 -14 -42 0 -44 1 -26 14 11 8 23 15 26 15
3 0 15 -7 26 -15z"/>
</g>
</svg>
